<?xml version="1.0" encoding="UTF-8" standalone="no"?>
<!-- Generator: Adobe Illustrator 27.5.0, SVG Export Plug-In . SVG Version: 6.00 Build 0)  -->

<svg
   version="1.1"
   x="0px"
   y="0px"
   viewBox="0 0 318.65521 245.1931"
   xml:space="preserve"
   id="svg98"
   sodipodi:docname="35105697_8187844.svg"
   width="318.65521"
   height="245.1931"
   inkscape:version="1.2.2 (b0a8486541, 2022-12-01)"
   xmlns:inkscape="http://www.inkscape.org/namespaces/inkscape"
   xmlns:sodipodi="http://sodipodi.sourceforge.net/DTD/sodipodi-0.dtd"
   xmlns="http://www.w3.org/2000/svg"
   xmlns:svg="http://www.w3.org/2000/svg"><defs
   id="defs102" /><sodipodi:namedview
   id="namedview100"
   pagecolor="#ffffff"
   bordercolor="#000000"
   borderopacity="0.25"
   inkscape:showpageshadow="2"
   inkscape:pageopacity="0.0"
   inkscape:pagecheckerboard="0"
   inkscape:deskcolor="#d1d1d1"
   showgrid="false"
   inkscape:zoom="1.062"
   inkscape:cx="210.92279"
   inkscape:cy="107.81544"
   inkscape:window-width="1366"
   inkscape:window-height="701"
   inkscape:window-x="0"
   inkscape:window-y="0"
   inkscape:window-maximized="1"
   inkscape:current-layer="svg98"
   showguides="false" />

<g
   id="OBJECTS"
   transform="translate(-95.023969,-80.546379)"
   style="display:inline">
	<g
   id="g88">
		<g
   id="g78">
			<path
   style="fill:#282426"
   d="m 192.466,296.16 c -13.301,2.925 -26.455,-5.487 -29.38,-18.788 -1.819,-8.272 0.749,-16.485 6.148,-22.218 -6.572,5.977 -9.859,15.201 -7.814,24.499 3.042,13.836 16.725,22.586 30.561,19.544 13.545,-2.978 22.208,-16.155 19.712,-29.689 1.306,12.327 -6.837,23.928 -19.227,26.652 z"
   id="path72" />
			<path
   style="fill:#282426"
   d="m 404.501,245.633 c 0.086,-1.089 0.13,-2.197 0.13,-3.294 0,-3.038 -0.334,-6.097 -0.993,-9.099 l -0.032,-0.143 -1.464,0.329 c -0.22,-0.986 -0.484,-1.95 -0.771,-2.902 l 1.446,-0.436 c -1.206,-3.997 -2.988,-7.775 -5.299,-11.229 l -1.254,0.839 c -0.558,-0.834 -1.137,-1.651 -1.752,-2.437 l 1.181,-0.923 c -2.561,-3.273 -5.59,-6.147 -9.006,-8.543 l -0.862,1.229 c -0.82,-0.575 -1.664,-1.115 -2.524,-1.628 l 0.773,-1.295 c -3.581,-2.139 -7.442,-3.731 -11.477,-4.733 l -0.364,1.462 c -0.97,-0.241 -1.95,-0.444 -2.941,-0.614 l 0.254,-1.486 c -4.085,-0.698 -8.296,-0.783 -12.415,-0.253 l 0.192,1.495 c -0.986,0.127 -1.973,0.292 -2.962,0.493 l -0.302,-1.478 -0.65,0.138 c -3.865,0.851 -7.573,2.227 -11.021,4.091 l 0.718,1.328 c -0.883,0.478 -1.751,0.978 -2.589,1.516 l -0.809,-1.262 c -0.302,0.194 -0.586,0.412 -0.883,0.614 l -8.182,-10.643 -0.506,0.394 -7.831,-9.72 c 2.034,-1.339 4.524,-2.665 7.606,-3.945 7.832,-3.252 21.28,-5.271 25.053,-5.067 4.651,0.252 10.998,2.141 12.959,2.314 1.961,0.173 5.822,-0.855 5.822,-0.855 0,0 -13.841,-4.949 -16.944,-5.737 -3.103,-0.788 -9,-0.267 -14.52,0.118 -5.519,0.385 -18.872,3.027 -18.872,3.027 0,0 19.741,-5.187 28.485,-5.354 3.21,-0.061 5.899,-0.147 8.025,-0.23 -0.59,-0.289 -1.127,-0.534 -1.582,-0.712 -4.256,-1.667 -15.279,-1.694 -24.053,-0.313 -4.241,0.667 -11.834,2.484 -17.987,5.304 -0.65,-0.637 -1.131,-1.072 -1.131,-1.072 l 4.316,-3.488 -8.485,-15.304 -23.954,-9.933 6.307,8.566 -2.85,2.218 2.532,3.143 2.735,-1.4 c 0,0 0.267,0.09 0.676,0.24 1.084,0.397 3.195,1.227 4.249,2.023 0.234,0.177 0.421,0.353 0.527,0.521 0.587,0.937 0.135,2.946 -0.1,3.807 -0.068,0.251 -0.119,0.41 -0.119,0.41 -0.821,-2.081 -2.888,-4.167 -2.888,-4.167 0,0 0,0 0.945,2.33 0.945,2.33 0.315,3.989 0.315,3.989 0,0 -0.535,-1.082 -1.317,-2.664 -0.533,-1.078 -1.973,-2.525 -3.729,-3.482 -0.82,-0.447 -1.703,-0.797 -2.605,-0.935 -1.17,0.132 -0.723,0.172 -1.561,0.05 l -2.12,3.059 c -3.048,-1.14 -9.613,-3.168 -11.644,-4.136 -2.377,-1.113 -8.868,-4.594 -8.868,-4.594 0,0 8.623,2.96 10.526,3.572 2.253,0.733 4.322,0.817 4.322,0.817 0,0 -5.524,-3.982 -7.59,-4.952 -2.065,-0.971 -8.706,-6.293 -8.747,-7.128 -1.324,-0.274 -3.325,-0.626 -6.142,1.729 -0.526,0.429 -1.086,0.875 -1.647,1.323 1.057,-3.464 4.222,-5.336 5.191,-5.611 0,0 -1.781,-3.285 -4.313,-3.255 -1.114,0.013 -4.158,0.162 -6.67,0.419 2.268,-1.344 4.972,-2.286 8.399,-2.826 -0.256,-0.396 -0.448,-0.695 -0.532,-0.836 -1.71,-2.878 -2.831,-4.952 -3.331,-5.898 -0.019,-0.043 -0.038,-0.088 -0.059,-0.135 -0.553,-1.266 -1.73,-3.858 -2.801,-5.553 -0.225,-0.357 -0.446,-0.676 -0.654,-0.931 -2.192,-2.684 -5.319,-5.098 -7.706,-6.74 3.588,0.841 7.054,1.817 9.339,2.844 0.166,-0.866 0.407,-1.772 0.789,-2.623 4.264,1.287 8.264,2.402 9.767,2.699 0,0 2.184,-1.303 3.585,-5.327 1.204,-3.458 0.837,-4.261 0.572,-4.853 l -1.306,0.192 -2.776,-0.727 c 0,0 1.265,-4.774 1.135,-11.314 l -5.384,-0.899 5.323,-0.782 c 0,0 8.092,-1.029 9.716,-1.426 1.592,-0.39 3.503,-0.966 3.178,-1.805 -0.428,-1.102 -14.767,-4.655 -16.001,-5.501 -3.349,-2.297 -15.031,-3.812 -21.885,2.777 -1.055,1.014 -1.863,2.049 -2.475,3.089 -0.326,-0.067 -0.493,0.075 -1.073,1.292 0,0 0,0 0,0 -0.414,0.868 -0.541,1.92 -0.457,2.992 0.15,1.909 0.986,3.887 2.197,5.041 1.892,1.802 4.07,1.934 4.07,1.934 -3.042,-2.722 -3.109,-5.632 -1.121,-8.056 1.988,-2.424 0.696,-3.924 -1.659,-3.22 -0.848,0.253 -1.326,0.181 -1.648,0.097 2.825,-2.389 6.962,-5.311 10.63,-5.629 6.3,-0.546 9.22,1.901 10.913,3.451 0,0 -5.864,-1.26 -11.115,1.241 0,0 7.345,0.892 10.033,3.773 0,0 -4.424,1.185 -5.655,1.64 -1.231,0.455 -2.642,0.871 -2.675,2.922 -0.01,0.615 -0.401,5.488 1.677,6.392 1.848,0.804 10.897,3.658 12.871,4.278 0.245,0.077 0.387,0.121 0.387,0.121 0,0 -6.567,0.966 -12.215,0.685 -0.045,-0.002 -0.091,-0.003 -0.135,-0.005 -5.678,-0.303 -10.787,-3.108 -11.622,-3.495 -0.75,-0.347 -3.255,-3.168 -4.777,-6.029 0.384,2.076 1.028,3.875 1.333,5.171 0.317,1.346 1.299,3.071 2.938,4.367 l -2.997,3.053 c -0.107,0.007 -0.192,0.008 -0.241,-0.002 0.037,0.037 0.081,0.085 0.12,0.125 l -0.09,0.092 c 0.072,0.014 0.146,0.028 0.219,0.043 0.05,0.052 0.097,0.099 0.148,0.154 2.443,2.605 6.922,8.631 6.922,8.631 0,0 -3.274,-2.434 -5.882,-4.421 -1.57,-1.196 -4.55,-1.745 -6.679,-1.995 0.822,0.791 2.559,2.554 4.338,4.936 2.454,3.284 1.71,5.97 1.411,8.684 -0.299,2.714 0.244,5.53 1.639,6.685 0,0 1.4,-2.224 4.43,-3.435 -2.162,1.848 -2.873,3.647 -3.092,4.784 -4.394,-2.928 -11.256,-9.763 -12.451,-14.343 -1.43,-5.481 -1.43,-5.481 -1.43,-5.481 0,0 -2.289,8.506 -1.2,15.959 1.26,8.625 -1.314,11.465 -3.145,14.901 0,0 7.627,-2.793 11.733,-4.332 0,0 -9.594,6.403 -14.055,9.992 -4.461,3.589 -6.138,6.061 -6.138,6.061 l 9.106,-2.535 -9.969,7.588 c 0,0 0.464,1.448 1.854,2.644 -2.501,0.193 -4.53,0.339 -6.083,0.446 -1.445,-0.818 -3.064,-4.718 -1.583,-9.739 1.481,-5.021 4.822,-18.416 4.822,-18.416 0,0 -3.404,4.27 -9.19,17.379 -2.03,4.599 -1.476,9.828 -2.321,10.854 -0.845,1.026 -0.701,3.516 -0.071,6.144 0.292,1.22 1.033,2.602 1.742,3.736 v 0 c 0,0 -4.41,6.327 1.222,7.5 1.477,0.308 4.276,0.914 7.592,1.658 -2.064,-0.052 -3.342,-0.102 -3.342,-0.102 l 0.111,0.93 -0.109,-0.166 c -4.495,-0.146 -24.127,-3.173 -27.292,-2.823 -3.164,0.35 -6.46,1.263 -7.97,1.635 -0.824,0.203 -13.776,-0.355 -25.774,-0.815 l 28.593,5.424 c 0,0 9.93,2.781 9.998,2.99 0.068,0.208 7.246,8.375 7.246,8.375 -3.707,-1.489 -14.788,-4.94 -16.578,-5.9 -9.071,-4.867 -38.923,-8.586 -53.004,-10.115 -1.485,0.696 -2.68,1.401 -2.68,1.401 0,0 20.457,4.065 22.48,4.19 2.023,0.125 24.973,6.063 24.873,6.625 -0.048,0.268 3.644,2.392 7.515,4.539 l -12.773,-3.035 c -0.807,-0.192 -1.648,-0.092 -2.399,0.282 l -4.726,2.361 c -1.154,0.577 -1.923,1.722 -2.145,3.016 -1.212,0.657 -1.917,1.69 -2.192,2.164 -0.308,0.531 -0.219,3.066 -0.076,3.663 0,0 1.374,0.814 1.551,0.716 0.176,-0.097 0.039,-1.96 0.865,-1.976 0.155,-0.003 0.318,-0.017 0.479,-0.036 l 0.698,3.267 c 0.353,1.652 1.593,2.904 3.132,3.162 l 44.977,7.527 2.682,-1.082 0.999,-2.909 c 3.91,1.481 8.255,3.295 10.87,4.777 1.987,1.126 6.67,2.224 11.501,3.127 0.495,0.92 0.731,1.999 0.27,3.155 -1.148,2.877 -1.75,11.676 -1.448,14.182 l -6.289,2.685 c -0.461,-0.798 -0.938,-1.587 -1.451,-2.354 l -1.254,0.839 c -0.558,-0.835 -1.138,-1.652 -1.753,-2.438 l 1.18,-0.923 c -2.561,-3.272 -5.59,-6.147 -9.005,-8.542 l -0.862,1.229 c -0.82,-0.575 -1.664,-1.115 -2.524,-1.628 l 0.773,-1.295 c -3.582,-2.139 -7.443,-3.731 -11.478,-4.733 l -0.363,1.461 c -0.97,-0.241 -1.95,-0.444 -2.941,-0.613 l 0.254,-1.485 c -4.083,-0.697 -8.3,-0.782 -12.415,-0.252 l 0.192,1.495 c -0.986,0.127 -1.974,0.292 -2.963,0.493 l -0.301,-1.478 c -0.216,0.044 -0.433,0.09 -0.649,0.137 -3.865,0.85 -7.573,2.226 -11.022,4.091 l 0.718,1.328 c -0.883,0.478 -1.751,0.978 -2.589,1.516 l -0.81,-1.262 c -3.497,2.242 -6.642,4.991 -9.345,8.17 l 1.145,0.974 c -0.649,0.764 -1.266,1.552 -1.857,2.36 l -1.218,-0.89 c -2.458,3.365 -4.402,7.061 -5.777,10.987 l 1.419,0.497 c -0.331,0.944 -0.622,1.902 -0.883,2.872 l -1.457,-0.392 c -0.956,3.551 -1.44,7.214 -1.44,10.888 0.001,0.482 0.009,0.965 0.025,1.448 l 1.508,-0.052 c 0.035,0.995 0.1,1.994 0.209,2.997 l -1.494,0.163 c 0.165,1.515 0.415,3.04 0.744,4.535 0.564,2.565 1.366,5.08 2.384,7.476 l 1.388,-0.589 c 0.394,0.926 0.815,1.835 1.272,2.72 l -1.336,0.69 c 1.906,3.695 4.35,7.084 7.263,10.07 l 1.077,-1.051 c 0.7,0.718 1.426,1.408 2.175,2.07 l -0.997,1.128 c 1.737,1.535 3.603,2.905 5.56,4.132 l -39.337,6.258 58.701,0.098 c 0.169,0.012 0.338,0.029 0.508,0.04 l 0.002,-0.039 3.11,0.005 0.002,0.103 c 0.751,-0.012 1.504,-0.047 2.256,-0.099 l 0.823,0.001 0.023,-0.079 c 1.796,-0.161 3.588,-0.424 5.355,-0.812 1.274,-0.28 2.55,-0.623 3.793,-1.019 l -0.456,-1.434 c 0.961,-0.306 1.901,-0.648 2.824,-1.019 l 0.562,1.398 c 3.866,-1.555 7.468,-3.67 10.707,-6.288 l -0.947,-1.172 c 0.78,-0.631 1.537,-1.286 2.265,-1.97 l 1.03,1.097 c 3.033,-2.848 5.625,-6.122 7.705,-9.732 l -1.299,-0.748 c 0.5,-0.867 0.959,-1.758 1.394,-2.661 l 1.36,0.656 c 1.812,-3.759 3.052,-7.748 3.687,-11.856 l -1.491,-0.23 c 0.152,-0.987 0.274,-1.981 0.354,-2.984 l 1.498,0.119 c 0.086,-1.089 0.129,-2.197 0.129,-3.293 0,-3.04 -0.334,-6.099 -0.992,-9.093 l -0.034,-0.151 -1.464,0.329 c -0.221,-0.986 -0.484,-1.95 -0.771,-2.902 l 1.446,-0.437 c -0.031,-0.102 -0.072,-0.201 -0.104,-0.303 l 17.831,-7.612 c 3.706,2.531 9.255,5.136 12.832,5.949 11.378,2.586 20.343,-4.348 20.343,-4.348 4.494,-1.901 8.005,-1.631 9.225,-2.653 1.65,-1.383 4.01,-4.553 5.651,-7.282 1.904,0.68 3.828,0.884 5.472,0.435 3.944,-1.077 7.968,-4.416 8.495,-7.329 0.947,-5.232 -1.573,-12.374 -2.965,-15.775 1.538,-0.258 3.029,-0.66 3.523,-1.807 0.986,-2.288 2.953,-3.303 3.587,-5.534 0.634,-2.231 0.015,-9.068 -0.059,-10.883 -0.074,-1.815 -0.633,-4.309 -0.633,-4.309 l -1.468,-0.683 c 2.546,-1.673 5.825,-4.18 7.207,-6.198 0.583,-0.852 1.29,-1.721 2.148,-2.598 l 7.762,9.635 -0.615,0.479 8.264,10.75 c -1.03,0.988 -2.029,2.01 -2.958,3.102 l 1.145,0.973 c -0.649,0.764 -1.267,1.552 -1.857,2.361 l -1.215,-0.889 c -2.46,3.363 -4.403,7.06 -5.779,10.987 l 1.418,0.497 c -0.331,0.944 -0.622,1.902 -0.883,2.872 l -1.456,-0.392 c -0.957,3.55 -1.441,7.214 -1.441,10.888 0,0.481 0.008,0.965 0.025,1.45 l 1.508,-0.054 c 0.034,0.996 0.099,1.995 0.209,2.998 l -1.494,0.163 c 0.164,1.513 0.415,3.039 0.744,4.536 0.563,2.563 1.365,5.077 2.384,7.476 l 1.388,-0.589 c 0.394,0.927 0.815,1.835 1.272,2.721 l -1.335,0.689 c 1.906,3.696 4.35,7.084 7.263,10.07 l 1.077,-1.051 c 0.7,0.717 1.425,1.407 2.174,2.069 l -0.997,1.129 c 3.119,2.757 6.62,5.034 10.404,6.771 l 0.625,-1.364 c 0.909,0.417 1.837,0.794 2.777,1.143 l -0.526,1.414 c 3.911,1.456 8,2.318 12.151,2.565 l 0.09,-1.507 c 0.995,0.059 1.995,0.093 3.002,0.078 l 0.023,1.497 c 2.827,-0.043 5.673,-0.375 8.458,-0.987 1.272,-0.278 2.548,-0.621 3.792,-1.018 l -0.457,-1.435 c 0.961,-0.306 1.902,-0.648 2.826,-1.02 l 0.562,1.398 c 3.865,-1.555 7.467,-3.67 10.706,-6.288 l -0.947,-1.171 c 0.78,-0.63 1.536,-1.286 2.265,-1.97 l 1.028,1.096 c 3.033,-2.847 5.625,-6.121 7.705,-9.731 l -1.297,-0.747 c 0.5,-0.868 0.959,-1.758 1.394,-2.661 l 1.359,0.655 c 1.811,-3.758 3.053,-7.746 3.688,-11.856 l -1.491,-0.23 c 0.153,-0.987 0.275,-1.981 0.354,-2.984 z M 276.978,95.167 c 0.318,0.237 -1.799,0.568 -3.601,0.835 -1.802,0.267 -4.55,0.358 -4.55,0.358 0,0 0.106,-0.949 -0.059,-2.017 -0.131,-0.848 -6.28,-2.855 -6.539,-3.171 0,-10e-4 14.431,3.758 14.749,3.995 z M 168.132,210.675 c -0.606,0.119 -5.025,0.442 -5.688,0.91 -0.663,0.468 -3.458,3.449 -3.458,3.449 l -0.302,-2.24 c -0.167,-1.241 0.368,-2.47 1.36,-3.106 1.462,-0.938 3.464,-2.129 4.05,-2.025 0.957,0.169 15.165,3.266 15.165,3.266 0,0 -10.52,-0.374 -11.127,-0.254 z m 49.386,56.643 c 3.77,17.146 -7.073,34.103 -24.22,37.873 -0.05,0.011 -0.1,0.018 -0.151,0.029 -1.128,0.242 -2.255,0.419 -3.377,0.537 -15.886,1.677 -30.834,-8.818 -34.345,-24.786 -3.77,-17.146 7.073,-34.103 24.22,-37.873 13.439,-2.955 26.758,3.069 33.707,14.067 l -20.511,8.756 c -2.355,-1.822 -5.469,-2.627 -8.604,-1.938 -5.612,1.234 -9.161,6.784 -7.927,12.396 1.234,5.612 6.784,9.161 12.396,7.927 4.785,-1.052 8.059,-5.244 8.158,-9.935 l 20.26,-8.649 c 0.144,0.527 0.276,1.058 0.394,1.596 z m -25.291,9.034 c -0.719,1.869 -2.329,3.353 -4.431,3.815 -2.982,0.656 -5.928,-0.971 -7.034,-3.71 1.409,1.855 3.809,2.833 6.233,2.3 1.004,-0.221 1.893,-0.677 2.63,-1.294 z m 1.8,32.153 c -0.591,0.13 -1.182,0.244 -1.773,0.343 -5.43,0.909 -10.803,0.509 -15.787,-0.974 -11.866,-3.531 -21.508,-13.226 -24.355,-26.174 -4.173,-18.976 7.828,-37.742 26.805,-41.915 15.061,-3.312 29.98,3.57 37.586,16.035 l -1.184,0.505 c -7.359,-11.913 -21.677,-18.473 -36.128,-15.295 -18.289,4.021 -29.855,22.107 -25.833,40.396 2.968,13.5 13.603,23.328 26.324,25.936 4.164,0.854 8.55,0.932 12.966,0.111 0.369,-0.069 0.737,-0.133 1.106,-0.214 18.289,-4.021 29.855,-22.107 25.833,-40.396 -0.147,-0.669 -0.319,-1.326 -0.503,-1.977 l 1.179,-0.503 c 0.209,0.726 0.404,1.458 0.568,2.206 4.173,18.977 -7.828,37.743 -26.804,41.916 z M 294.236,190.186 c 0.308,-0.045 0.608,-0.015 0.888,0.067 0.755,0.223 1.353,0.861 1.475,1.691 0.132,0.901 -0.338,1.744 -1.102,2.142 -0.201,0.105 -0.419,0.186 -0.656,0.221 -0.3,0.044 -0.593,0.018 -0.867,-0.059 -0.315,-0.089 -0.599,-0.255 -0.837,-0.473 -0.098,-0.09 -0.186,-0.188 -0.266,-0.295 -0.198,-0.267 -0.342,-0.579 -0.394,-0.93 -0.056,-0.382 0.003,-0.753 0.14,-1.086 0.27,-0.66 0.863,-1.167 1.619,-1.278 z m -0.083,21.1 -9,-2.322 -1.933,1.32 0.692,-2.682 9.235,2.382 2.493,0.643 -0.252,0.977 z m 0.638,2.631 -0.252,0.977 -10.235,-2.64 -1.933,1.32 0.692,-2.682 z m -3.847,-18.596 c 0.131,0.895 0.964,1.515 1.859,1.383 0.192,-0.028 0.368,-0.094 0.53,-0.18 -0.162,0.847 -0.834,1.54 -1.735,1.672 -1.138,0.167 -2.196,-0.62 -2.363,-1.758 -0.167,-1.138 0.62,-2.196 1.758,-2.363 0.1,-0.015 0.199,-0.013 0.298,-0.013 -0.275,0.342 -0.415,0.79 -0.347,1.259 z m 2.153,-18.688 c -1.8,2.401 -5.805,4.416 -9.617,6.489 -4.684,2.547 -4.353,6.56 -2.499,6.912 1.432,0.271 8.217,-1.043 12.159,-4.073 -1.112,2.217 -3.137,4.259 -6.943,5.542 -0.766,0.258 -1.834,0.58 -3.115,0.945 -3.453,0.984 -8.475,2.287 -13.477,3.542 -1.424,-2.441 -3.032,-4.747 -3.4,-5.521 -0.028,-0.059 -0.118,-0.16 -0.236,-0.281 -0.354,-0.363 -1.082,-0.984 -2.114,-1.813 0.271,-0.212 0.525,-0.4 0.758,-0.556 4.588,-3.084 10.408,-5.824 10.408,-5.824 0,0 -0.843,-1.086 -5.667,1.138 -1.829,0.843 -4.689,2.202 -7.567,3.615 -0.407,-0.315 -0.837,-0.647 -1.284,-0.989 -0.018,-0.014 -0.036,-0.028 -0.054,-0.041 0.015,-0.009 0.028,-0.017 0.044,-0.026 3.752,-2.205 8.964,-4.926 12.324,-6.92 4.874,-2.893 9.025,-4.791 13.937,-5.274 2.789,-0.276 5.019,1.168 6.343,3.135 z m -17.386,43.141 c 0,0 -7.122,-2.559 -8.159,-2.842 -0.551,-0.151 -2.655,-0.158 -4.508,-0.131 0.32,-0.522 0.634,-1.035 0.944,-1.542 0.221,-0.094 0.416,-0.179 0.563,-0.247 1.078,-0.498 4.893,-2.262 5.162,-2.769 0.212,-0.398 4.149,-6.717 5.82,-9.395 0.453,-0.726 0.741,-1.187 0.741,-1.187 l -0.361,1.232 -3.964,13.532 z m -37.134,-61.605 c 0.552,-0.89 1.031,-1.604 1.332,-1.934 0.001,-0.001 0.002,-0.002 0.002,-0.003 0.544,-0.594 1.06,-1.326 1.538,-2.119 1.689,-2.803 2.908,-6.383 3.288,-7.566 0.381,0.509 0.801,1.028 1.234,1.539 0.033,0.039 0.065,0.079 0.098,0.118 0.29,-0.407 0.586,-0.796 0.886,-1.176 1.82,2.462 5.437,7.293 6.556,8.317 0,0 0.314,0.225 0.763,0.539 0.816,0.571 2.085,1.442 2.766,1.82 l 1.913,1.048 c 1.225,0.661 2.829,1.577 4.047,2.395 0.809,0.555 2.094,1.231 3.67,1.887 2.861,1.205 6.623,2.355 9.994,2.676 5.224,0.508 9.629,1.125 9.629,1.125 0,0 0.003,-0.006 0.463,-0.79 -0.189,0.329 -0.351,0.612 -0.463,0.805 -0.732,1.269 -0.433,1.402 -0.118,2.038 0.315,0.637 1.447,-0.099 2.75,0.224 0.226,0.056 0.469,0.146 0.717,0.25 -4.755,0.557 -8.557,1.603 -17.368,6.702 -4.254,2.462 -9.565,5.726 -13.473,8.398 -9.51,-7.21 -24.792,-18.257 -24.792,-18.257 0,0 2.717,-5.052 4.568,-8.036 z M 208.6,184.492 c -0.807,-0.139 -2.996,-1.779 -2.82,-4.739 0.195,-1.183 0.577,-2.143 1.305,-2.284 0.416,-0.08 0.964,-0.221 1.569,-0.393 3.832,-0.878 14.093,-2.719 23.849,-0.05 0.709,0.343 1.436,0.706 2.173,1.081 -8.21,-0.311 -17.635,1.789 -17.635,1.789 0,0 5.271,0.489 13.799,1.366 4.994,0.514 13.138,3.834 19.032,6.498 1.306,0.59 2.502,1.148 3.528,1.636 0.611,0.291 1.156,0.554 1.635,0.787 0.055,0.027 0.109,0.053 0.163,0.079 1.185,0.579 1.891,0.939 1.891,0.939 0.774,0.494 1.466,0.995 2.088,1.5 2.001,1.626 3.252,3.29 4.016,4.87 0.001,0.001 0.001,0.003 0.002,0.004 0.087,0.18 0.168,0.359 0.242,0.537 0.514,1.221 0.749,2.381 0.829,3.42 0.126,1.627 -0.122,2.959 -0.262,3.765 0,0 -0.038,-0.014 -0.092,-0.034 -0.003,0.092 -0.007,0.182 -0.013,0.274 -2.698,-0.222 -6.133,-0.578 -8.594,-1.086 -1.148,-0.237 -2.085,-0.507 -2.633,-0.812 -0.006,-0.003 -0.013,-0.006 -0.018,-0.009 -0.511,-0.29 -1.228,-0.523 -2.055,-0.711 0.266,-0.469 0.527,-0.936 0.777,-1.39 0.291,-0.527 0.562,-1.027 0.812,-1.491 0.001,-0.002 0.002,-0.004 0.003,-0.006 0.013,-0.025 0.028,-0.051 0.041,-0.076 0.147,-0.274 0.285,-0.532 0.411,-0.77 0.497,-0.936 0.818,-1.56 0.818,-1.56 -0.229,-0.061 -0.455,-0.089 -0.681,-0.119 -0.217,-0.03 -0.431,-0.045 -0.644,-0.05 -0.005,0 -0.011,0 -0.017,0 -2.057,-0.036 -3.901,1.048 -4.83,2.408 0,0 0,0 0,0 1.246,-2.137 3.555,-6.162 3.78,-7.026 0.308,-1.189 -1.52,-2.276 -2.433,-2.023 -0.913,0.253 -3.362,1.577 -5.694,1.851 -1.01,0.119 -5.045,-0.38 -9.603,-1.04 -5.962,-0.863 -12.82,-2.002 -14.987,-2.4 -4.741,-0.866 -7.413,-4.33 -9.752,-4.735 z m 48.256,34.531 -0.164,0.639 -11.176,-1.449 7.293,5.665 -5.245,9.497 c 0,0 -0.689,-0.181 -1.684,-0.422 -1.553,-0.376 -3.857,-0.901 -5.497,-1.123 -0.908,-0.131 -2.418,-0.306 -3.652,-0.255 0,-10e-4 0.001,-10e-4 0.001,-0.002 0.264,-0.876 0.538,-1.679 0.799,-2.45 0.572,-1.691 1.075,-3.215 1.218,-4.909 0.412,-4.862 1.362,-8.748 2.368,-11.696 l -0.56,10.516 c 0,0 4.95,-13.365 6.638,-14.934 0.368,-0.342 0.876,-1.042 1.44,-1.912 1.097,0.22 2.711,0.576 4.629,0.968 1.664,1.15 3.479,2.485 3.603,2.923 0.232,0.818 -0.592,4.617 -0.592,4.617 l -7.772,0.138 z m -31.039,7.851 c -3.062,-0.689 -9.544,-5.686 -15.686,-7.734 l 0.615,-1.792 c 3.184,0.956 6.886,2.165 8.327,3.012 2.737,1.608 6.005,0.74 6.373,3.245 0.148,1.004 0.532,2.253 0.94,3.392 -0.21,-0.044 -0.406,-0.086 -0.569,-0.123 z m -3.606,-8.131 0.821,-5.215 4.774,-4.977 7.722,-1.796 0.899,2.228 z m 36.17,34.794 c 0,0 -0.215,-0.023 -0.559,-0.061 -1.561,-0.173 -6.114,-0.702 -8.998,-1.284 -0.883,-0.178 -1.615,-0.361 -2.046,-0.54 -2.096,-0.902 -2.813,-1.614 -3.476,-2 -0.289,-0.163 -2.71,-1.507 -5.379,-2.975 -3.44,-1.892 -7.292,-3.99 -7.524,-4.027 -1.435,-1.931 2.426,-5.052 3.453,-6.954 0.061,-0.117 0.125,-0.221 0.151,-0.385 2.478,-0.282 12.574,1.525 12.426,2.097 -0.169,0.602 -2.255,3.304 -2.255,3.304 l -4.185,1.614 c 0,0 1.441,0.897 3.29,2.065 2.705,1.71 6.291,4.008 7.575,4.972 0.211,0.158 1.061,0.57 2.151,1.045 0.902,0.393 1.965,0.825 2.98,1.197 1.154,0.423 2.241,0.766 2.929,0.866 z m 7.04,1.972 c -2.139,0.314 -4.214,-0.085 -5.999,-1.005 1.261,0.025 2.099,0.043 2.308,0.063 0.777,0.069 0.686,-0.39 0.503,-1.05 0.931,0.206 1.912,0.258 2.912,0.112 4.405,-0.647 7.452,-4.742 6.805,-9.147 -0.647,-4.405 -4.742,-7.452 -9.147,-6.805 -4.405,0.647 -7.452,4.742 -6.805,9.147 0.098,0.665 0.282,1.294 0.526,1.889 -0.762,-0.351 -1.54,-0.704 -2.294,-1.047 -0.039,-0.188 -0.084,-0.373 -0.113,-0.566 -0.799,-5.444 2.966,-10.504 8.41,-11.303 5.444,-0.799 10.504,2.966 11.303,8.409 0.799,5.443 -2.966,10.504 -8.409,11.303 z m -3.357,-8.081 c 0.09,0.611 0.337,1.153 0.677,1.62 -1.326,-0.4 -2.375,-1.524 -2.589,-2.985 -0.296,-2.014 1.097,-3.886 3.111,-4.182 1.403,-0.206 2.725,0.419 3.505,1.491 -0.502,-0.151 -1.04,-0.207 -1.592,-0.126 -2.014,0.296 -3.407,2.168 -3.112,4.182 z m 14.071,-9.837 c -2.41,-5.683 -8.01,-5.39 -8.01,-5.39 0,0 3.652,-1.546 6.204,0.814 1.858,1.72 1.806,4.576 1.806,4.576 z m 6.675,3.335 c -1.059,0.156 -1.794,1.145 -1.638,2.204 l 0.757,5.159 c 0.131,0.895 -0.486,1.727 -1.383,1.858 -0.092,0.014 -0.183,0.014 -0.273,0.012 0.099,-0.211 0.147,-0.439 0.112,-0.674 l -1.174,-7.993 c -0.129,-0.877 0.628,-1.717 1.687,-1.873 2.849,-0.418 4.884,-2.675 4.538,-5.032 l -0.935,-6.369 c -0.346,-2.357 -2.943,-3.934 -5.792,-3.516 l -19.746,2.899 c -0.089,-0.868 0.513,-1.66 1.386,-1.788 l 19.815,-2.909 c 2.849,-0.418 5.505,1.558 5.923,4.405 l 1.13,7.695 c 0.418,2.848 -1.558,5.504 -4.407,5.922 z m 10.025,-19.621 -10.235,-2.64 -1.933,1.32 0.692,-2.682 11.728,3.025 z m 0.856,-3.122 -10.235,-2.64 -1.933,1.32 0.692,-2.682 11.728,3.025 z m 4.457,21.921 c -1.094,0.564 -2.376,0.548 -3.625,0.259 -0.01,-1.204 -0.09,-2.092 0.351,-4.193 0.505,-2.407 2.942,-9.348 4.439,-11.615 0.795,2.291 1.807,5.346 2.057,6.744 0.849,4.751 0.319,6.981 -3.222,8.805 z m 8.987,-56.777 -1.733,5.898 -2.354,8.01 -0.926,3.151 1.433,9.761 -1.277,0.628 -2.248,-12.231 0.644,-2.412 3.381,-12.669 3.423,-1.304 z m 23.487,18.069 -0.357,-0.46 -1.37,1.049 -0.759,-0.943 2.665,-2.17 1.147,1.493 5.924,7.708 0.902,1.173 0.924,1.202 2.417,3.145 0.778,1.012 1.293,1.683 13.07,17.007 1.618,2.105 1.004,1.307 0.32,0.417 -0.493,-0.33 -1.5,-1.003 -1.742,-1.166 -0.4,-0.514 -13.136,-16.892 -1.3,-1.672 -0.783,-1.006 -2.436,-3.133 -0.929,-1.195 -0.908,-1.168 z m 6.789,46.414 c 3.042,13.836 16.725,22.586 30.561,19.544 13.545,-2.978 22.208,-16.155 19.712,-29.689 1.306,12.327 -6.836,23.928 -19.227,26.653 -13.301,2.925 -26.455,-5.487 -29.38,-18.788 -1.624,-7.388 0.257,-14.724 4.523,-20.293 l 9.554,12.428 c -1.025,2.054 -1.384,4.456 -0.853,6.872 1.234,5.612 6.784,9.161 12.396,7.927 5.612,-1.234 9.161,-6.784 7.927,-12.396 -1.234,-5.612 -6.784,-9.161 -12.396,-7.927 -0.67,0.147 -1.308,0.36 -1.915,0.623 L 345.149,215.64 c 3.117,-2.025 6.642,-3.538 10.487,-4.383 17.146,-3.77 34.103,7.073 37.873,24.22 3.77,17.146 -7.073,34.103 -24.22,37.873 -17.146,3.77 -34.103,-7.073 -37.873,-24.22 -2.382,-10.834 1.074,-21.587 8.264,-28.991 l 3.799,4.942 c -5.384,5.941 -7.922,14.3 -6.068,22.729 z m 30.274,-8.243 c -0.076,-0.344 -0.185,-0.672 -0.313,-0.988 0.524,0.69 0.915,1.497 1.113,2.398 0.731,3.326 -1.372,6.615 -4.698,7.346 -2.982,0.656 -5.927,-0.971 -7.034,-3.71 1.409,1.855 3.809,2.833 6.233,2.3 3.327,-0.731 5.43,-4.02 4.699,-7.346 z m 2.333,37.094 c -18.976,4.173 -37.742,-7.828 -41.915,-26.805 -2.674,-12.161 1.302,-24.23 9.492,-32.432 l 0.783,1.019 c -7.814,7.903 -11.595,19.477 -9.031,31.14 4.021,18.289 22.108,29.855 40.396,25.833 18.289,-4.021 29.855,-22.108 25.833,-40.396 -4.022,-18.289 -22.108,-29.855 -40.397,-25.833 -4.159,0.915 -7.966,2.563 -11.325,4.769 l -0.778,-1.012 c 3.505,-2.316 7.481,-4.045 11.83,-5.002 18.976,-4.173 37.742,7.828 41.915,26.805 4.174,18.976 -7.827,37.742 -26.803,41.914 z"
   id="path74" />
			<path
   style="fill:#282426"
   d="m 246.891,101.725 c -0.321,-0.539 -1.735,-0.156 -2.199,-0.018 -0.464,0.138 -0.588,0.754 -0.588,0.754 0.701,-0.068 1.419,0.263 1.797,0.618 0.377,0.355 1.417,1.265 1.417,1.265 0,0 -0.107,-2.081 -0.427,-2.619 z"
   id="path76" />
		</g>
		<g
   id="g82">
			<polygon
   style="fill:#da463f"
   points="144.561,305.293 140.038,296.168 101.37,300.659 "
   id="polygon80" />
		</g>
		<g
   id="g86">
			<polygon
   style="fill:#da463f"
   points="130.755,280.749 134.884,288.794 111.782,284.265 "
   id="polygon84" />
		</g>
	</g>
</g>

</svg>
